<svg aria-hidden="true" style="position: absolute; width: 0; height: 0; overflow: hidden;" version="1.1" xmlns="http://www.w3.org/2000/svg" xmlns:xlink="http://www.w3.org/1999/xlink">
<defs>
<symbol id="card" viewBox="0 0 32 32">
<path d="M28.601 13.297h-25.105v-1.731c0.005-1.028 0.838-1.861 1.866-1.864h21.373c1.029 0.004 1.862 0.837 1.866 1.866v0zM3.496 15.163h25.105v8.605c-0.004 1.029-0.837 1.862-1.866 1.866h-21.373c-1.029-0.004-1.862-0.837-1.866-1.866v-0zM7.269 22.008h8.199v-1.868h-8.199z"></path>
</symbol>
<symbol id="disability" viewBox="0 0 32 32">
<path d="M28.152 22.046c0 0 0 0.001 0 0.002 0 0.515-0.418 0.933-0.933 0.933 0 0 0 0 0 0h-1.556c-0.423 1.523-1.797 2.623-3.428 2.623-1.962 0-3.552-1.59-3.552-3.552 0-0.743 0.228-1.433 0.619-2.003l-0.008 0.012h-1.644c-0.69 3.183-3.482 5.533-6.824 5.533-3.852 0-6.974-3.122-6.974-6.974 0-3.097 2.019-5.723 4.812-6.633l0.049-0.014v-5.78h-1.681c-0.515 0-0.933-0.418-0.933-0.933s0.418-0.933 0.933-0.933v0h2.614c0.515 0 0.933 0.418 0.933 0.933v0 3.016h6.966c0.516 0 0.934 0.418 0.934 0.934s-0.418 0.934-0.934 0.934h-6.968v1.507c0.062-0.002 0.136-0.003 0.209-0.003 0.012 0 0.024 0 0.037 0h-0.002c0.004 0 0.008 0 0.012 0 1.457 0 2.809 0.449 3.926 1.216l-0.024-0.015h6.188c1.029 0.004 1.862 0.837 1.866 1.866v3.478c0 0 0 0 0 0 0 0.12-0.012 0.238-0.034 0.351l0.002-0.012c1.406 0.215 2.528 1.228 2.899 2.555l0.006 0.025h1.555c0 0 0 0 0 0 0.515 0 0.933 0.418 0.933 0.933 0 0.001 0 0.001 0 0.002v-0zM15.931 18.622c0-0.001 0-0.003 0-0.004 0-2.821-2.287-5.108-5.108-5.108s-5.108 2.287-5.108 5.108c0 2.821 2.287 5.108 5.108 5.108 1.41 0 2.687-0.571 3.611-1.495l-0 0c0.925-0.919 1.497-2.192 1.497-3.598 0-0.004 0-0.009-0-0.013v0.001zM23.921 22.045c0-0.93-0.754-1.684-1.684-1.684s-1.684 0.754-1.684 1.684c0 0.93 0.754 1.684 1.684 1.684v0c0.93-0.001 1.683-0.754 1.684-1.684v-0z"></path>
</symbol>
<symbol id="parking" viewBox="0 0 32 32">
<path d="M18.237 2.231c4.62-0.019 9.192 2.341 9.192 9.198s-4.571 9.057-9.143 9.088l-7.975 0.055-0.049 9.143h-5.69v-27.429zM10.261 8.027l0.049 6.857 6.857-0.055c1.985 0 4.471-0.568 4.547-3.401s-2.393-3.456-4.596-3.456z"></path>
</symbol>
<symbol id="playground" viewBox="0 0 32 32">
<path d="M31.561 25.472c-0.28-0.273-0.659-0.421-1.051-0.411-2.074 0.053-4.014-0.405-5.764-1.669-1.581-1.142-2.817-2.803-3.847-4.467-0.576-0.93-1.118-2.090-2.672-3.263-1.923-1.452-4.494-2.096-6.846-2.102v-3.182l3.476 2.609c1.577 0.403 3.102 1.105 4.38 2.182 1.157 0.975 1.721 1.881 2.209 2.701l0.628-0.276 0.374 1.856c0.764 1.114 1.56 2.054 2.455 2.788 0.105-0.203 0.145-0.442 0.096-0.684l-1.134-5.63c-0.062-0.308-0.259-0.571-0.538-0.718s-0.607-0.159-0.896-0.035l-1.466 0.628c-0.392-1.577-0.527-2.119-0.911-3.662l3.532-4.822c0.284-0.387 0.2-0.931-0.188-1.215s-0.931-0.2-1.215 0.188l-3.571 4.876-2.435 0.642-4.797-3.601v-0.575c0-0.325-0.147-0.633-0.4-0.837l-4.721-3.813c-0.333-0.269-0.808-0.269-1.141 0l-4.721 3.813c-0.253 0.204-0.4 0.512-0.4 0.837v21.065c0 0.293 0.238 0.531 0.531 0.531h1.273c0.293 0 0.531-0.238 0.531-0.531v-5.63h6.713v5.63c0 0.293 0.238 0.531 0.531 0.531h0.261c0.013 0 0.017 0 0.017 0h0.995c0.293 0 0.531-0.238 0.531-0.531v-10.909c1.187 0.128 2.708 0.463 4.112 1.28 1.16 0.675 2.082 1.589 2.742 2.72 1.457 2.495 2.756 4.123 4.211 5.279 2.415 1.919 5.192 2.416 8.281 2.032 0.001-0 0.001-0 0.002-0 0.727-0.091 1.269-0.707 1.269-1.44v-1.144c0-0.391-0.158-0.766-0.439-1.039zM9.048 21.239v0h-6.713v-2.554h6.713v2.554zM9.048 16.861v0h-6.713v-2.625h6.713v2.625z"></path>
<path d="M28.039 18.388c-3.63-2.898-3.374-2.698-3.46-2.751 0.030 0.107-0.021-0.136 0.645 3.174l1.513 1.208c0.45 0.36 1.107 0.286 1.466-0.164s0.286-1.107-0.164-1.466z"></path>
<path d="M18.982 9.161c0 1.12-0.908 2.028-2.028 2.028s-2.028-0.908-2.028-2.028c0-1.12 0.908-2.028 2.028-2.028s2.028 0.908 2.028 2.028z"></path>
</symbol>
<symbol id="playroom" viewBox="0 0 32 32">
<path d="M30.933 25.6h-1.067v-2.133c0-2.352-1.915-4.267-4.267-4.267h-0.048c-0.503-5.617-4.95-10.11-10.619-10.618v-2.378c0.335 0.12 0.691 0.197 1.067 0.197 1.765 0 3.2-1.435 3.2-3.2s-1.435-3.2-3.2-3.2c-0.823 0-1.566 0.321-2.133 0.832-0.568-0.512-1.311-0.832-2.133-0.832-1.765 0-3.2 1.435-3.2 3.2s1.435 3.2 3.2 3.2c0.376 0 0.731-0.077 1.067-0.197v2.379c-5.971 0.541-10.667 5.575-10.667 11.684v5.333h-1.067c-0.59 0-1.067 0.477-1.067 1.067s0.477 1.067 1.067 1.067c0.999 0 2.198 0 3.2 0 0 2.352 1.915 4.267 4.267 4.267s4.267-1.915 4.267-4.267h6.4c0 2.352 1.915 4.267 4.267 4.267s4.267-1.915 4.267-4.267c1.003 0 2.202 0 3.2 0 0.59 0 1.067-0.477 1.067-1.067s-0.477-1.067-1.067-1.067zM16 2.133c0.587 0 1.067 0.479 1.067 1.067s-0.479 1.067-1.067 1.067-1.067-0.479-1.067-1.067 0.479-1.067 1.067-1.067zM8.533 29.867c-1.177 0-2.133-0.956-2.133-2.133 0-1.142 0.926-2.133 2.133-2.133 1.201 0 2.133 0.993 2.133 2.133 0 1.177-0.956 2.133-2.133 2.133zM12.8 21.333h-5.333c-0.59 0-1.067-0.477-1.067-1.067 0-3.751 2.791-6.836 6.4-7.359v8.426zM11.733 4.267c-0.588 0-1.067-0.479-1.067-1.067s0.479-1.067 1.067-1.067 1.067 0.479 1.067 1.067-0.479 1.067-1.067 1.067zM20.267 21.333h-5.333v-8.425c3.609 0.523 6.4 3.607 6.4 7.359-0 0.59-0.477 1.067-1.067 1.067zM23.467 29.867c-1.177 0-2.133-0.956-2.133-2.133 0-1.142 0.926-2.133 2.133-2.133 1.201 0 2.133 0.993 2.133 2.133 0 1.177-0.956 2.133-2.133 2.133z"></path>
</symbol>
</defs>
</svg>
