<svg viewBox="-6.4 -6.4 76.8 76.8" xmlns="http://www.w3.org/2000/svg" aria-hidden="true"
    class="iconify iconify--medical-icon" fill="#fff" stroke="#fff" stroke-width=".96">
    <rect x="-6.4" y="-6.4" width="76.8" height="76.8" rx="38.4" fill="#00a3a4" stroke="none" stroke-width="0" />
    <path
        d="M16.336 25.949a19.428 19.428 0 0 0-9.874 16.895A19.256 19.256 0 0 0 12.14 56.55a19.257 19.257 0 0 0 13.707 5.677c9.003 0 16.754-6.106 18.85-14.849l-3.317-.795a15.918 15.918 0 0 1-15.534 12.234 15.871 15.871 0 0 1-11.296-4.679 15.867 15.867 0 0 1-4.678-11.294 16.014 16.014 0 0 1 8.139-13.924l-1.675-2.971zm39.492 23.979-3.556 1.422-9.567-17.886H23.179l-.64-5.892 15.077.007.001-3.411-15.447-.006-1.407-12.968a5.403 5.403 0 0 0 1.972.132 5.425 5.425 0 0 0 4.742-6.033 5.425 5.425 0 1 0-10.774 1.289c.052.433.158.846.303 1.237l-.038.004 2.987 27.53.166 1.522h20.543l10.043 18.774 6.39-2.556-1.267-3.166z"
        fill="#ffff" />
</svg>