<svg viewBox="-2.4 -2.4 28.8 28.8" fill="none" xmlns="http://www.w3.org/2000/svg" stroke="#000">
    <rect x="-2.4" y="-2.4" width="28.8" height="28.8" rx="14.4" fill="#00a3a4" stroke="none" stroke-width="0" />
    <path
        d="M3 9h18M7 15h2m-2.8 4h11.6c1.12 0 1.68 0 2.108-.218a2 2 0 0 0 .874-.874C21 17.48 21 16.92 21 15.8V8.2c0-1.12 0-1.68-.218-2.108a2 2 0 0 0-.874-.874C19.48 5 18.92 5 17.8 5H6.2c-1.12 0-1.68 0-2.108.218a2 2 0 0 0-.874.874C3 6.52 3 7.08 3 8.2v7.6c0 1.12 0 1.68.218 2.108a2 2 0 0 0 .874.874C4.52 19 5.08 19 6.2 19Z"
        stroke="#fff" stroke-width="2" stroke-linecap="round" stroke-linejoin="round" />
</svg>