<svg aria-hidden="true" style="position: absolute; width: 0; height: 0; overflow: hidden;" version="1.1"
    xmlns="http://www.w3.org/2000/svg" xmlns:xlink="http://www.w3.org/1999/xlink">
    <defs>
        <symbol id="icon-accessibility" viewBox="0 0 32 32">
            <path fill="#fff" style="fill: var(--color1, #fff)"
                d="M16 0c8.837 0 16 7.163 16 16s-7.163 16-16 16c-8.837 0-16-7.163-16-16s7.163-16 16-16z"></path>
            <path fill="#00a3a4" style="fill: var(--color2, #00a3a4); stroke: var(--color2, #fff)" stroke="#fff"
                stroke-linejoin="miter" stroke-linecap="butt" stroke-miterlimit="4" stroke-width="0.4"
                d="M9.473 13.479c-2.472 1.415-4.111 4.036-4.114 7.039v0c-0 0.006-0 0.014-0 0.022 0 2.223 0.904 4.236 2.365 5.689l0 0c1.454 1.461 3.466 2.365 5.689 2.365 0.008 0 0.016 0 0.024-0h-0.001c3.751 0 6.981-2.544 7.854-6.187l-1.382-0.331c-0.718 2.945-3.334 5.098-6.452 5.098-0.007 0-0.014 0-0.021-0h0.001c-0.005 0-0.012 0-0.018 0-1.832 0-3.491-0.745-4.688-1.949l-0-0c-1.204-1.198-1.949-2.856-1.949-4.688 0-0.006 0-0.013 0-0.019v0.001c0.003-2.476 1.354-4.635 3.359-5.784l0.033-0.017-0.698-1.238zM25.928 23.47l-1.482 0.593-3.986-7.453h-8.136l-0.267-2.455 6.282 0.003 0-1.421-6.436-0.002-0.586-5.403c0.168 0.045 0.36 0.070 0.559 0.070 0.093 0 0.184-0.006 0.274-0.016l-0.011 0.001c1.127-0.139 1.992-1.091 1.992-2.244 0-0.095-0.006-0.188-0.017-0.28l0.001 0.011c-0.139-1.128-1.091-1.992-2.245-1.992-1.248 0-2.261 1.012-2.261 2.261 0 0.095 0.006 0.188 0.017 0.279l-0.001-0.011c0.022 0.18 0.066 0.353 0.126 0.515l-0.016 0.002 1.245 11.471 0.069 0.634h8.56l4.185 7.822 2.663-1.065-0.528-1.319z">
            </path>
        </symbol>
        <symbol id="icon-bear" viewBox="0 0 32 32">
            <path fill="#fff" style="fill: var(--color1, #fff)"
                d="M16 0c8.837 0 16 7.163 16 16s-7.163 16-16 16c-8.837 0-16-7.163-16-16s7.163-16 16-16z"></path>
            <path fill="#00a3a4" style="fill: var(--color2, #00a3a4)"
                d="M13.851 9.134c0.361 0 0.654-0.293 0.654-0.654s-0.293-0.654-0.654-0.654v0c-0.005-0-0.011-0-0.017-0-0.362 0-0.655 0.293-0.655 0.655s0.293 0.655 0.655 0.655c0.006 0 0.012-0 0.017-0l-0.001 0zM14.93 11.502c-0.444 0-0.685-0.451-0.687-0.456-0.068-0.128-0.2-0.214-0.353-0.214-0.067 0-0.131 0.017-0.186 0.046l0.002-0.001c-0.129 0.068-0.215 0.201-0.215 0.354 0 0.066 0.016 0.128 0.044 0.183l-0.001-0.002c0.018 0.035 0.458 0.888 1.395 0.888 0.367 0 0.673-0.078 0.918-0.227 0.234 0.161 0.537 0.249 0.908 0.249 0.858 0 1.263-0.893 1.281-0.931 0.021-0.047 0.034-0.102 0.034-0.16 0-0.161-0.096-0.3-0.233-0.362l-0.003-0.001c-0.048-0.023-0.105-0.036-0.165-0.036-0.161 0-0.3 0.096-0.361 0.234l-0.001 0.002c-0.001 0.003-0.214 0.457-0.552 0.457-0.298 0-0.43-0.076-0.486-0.124v-0.674c0.273-0.054 0.475-0.291 0.477-0.575v-0c0-0.332-0.269-0.614-0.586-0.614l-0.555 0.005c-0.335 0-0.608 0.275-0.608 0.609 0 0.288 0.203 0.533 0.475 0.595v0.627c-0.071 0.052-0.23 0.128-0.543 0.128zM11.044 3.002c2.020-0.098 2.407 1.396 2.407 1.396s0.937-0.573 2.4-0.573c1.462 0 2.398 0.573 2.398 0.573s0.388-1.495 2.408-1.396c1.177 0.057 2.137 1.040 2.137 2.218 0 1.103-0.726 2.585-1.91 2.622l-0.15 0.005c0.034 0.2 0.047 0.76 0.047 0.908 0 2.719-2.212 4.932-4.928 4.932s-4.93-2.213-4.93-4.932c0-0.148 0.012-0.707 0.047-0.907l-0.152-0.005c-1.183-0.037-1.908-1.519-1.908-2.622 0-1.178 0.96-2.161 2.136-2.218zM13.179 20.11v-1.953h1.727v-1.726h1.951v1.726h1.728v1.953h-1.728v1.726h-1.95v-1.726l-1.727-0zM6.897 19.871c-0.088-2.199 1.085-4.024 2.242-5.52l0.159-0.213c0.38-0.515 0.629-0.855 1.784-0.774 0.884 0.063 1.777 0.723 1.777 1.864v0.009c-0.003 0.687-0.452 1.303-0.927 1.953-0.577 0.791-1.231 1.685-1.231 2.903 0 0.348 0.076 0.619 0.151 0.876 0.072 0.255 0.14 0.494 0.14 0.802 0 1.049-0.887 1.902-1.975 1.902-1.308 0-2.021-1.28-2.122-3.804zM12.651 28.996c-1.446 0-2.622-1.175-2.622-2.62s1.177-2.62 2.622-2.62c1.446 0.001 2.619 1.174 2.62 2.62v0c-0.001 1.447-1.174 2.619-2.62 2.62h-0zM19.093 28.996c-1.445 0-2.622-1.175-2.622-2.62s1.177-2.62 2.622-2.62c1.446 0 2.622 1.175 2.622 2.62s-1.177 2.62-2.622 2.62zM22.68 23.675c-1.089 0-1.975-0.853-1.975-1.902 0-0.308 0.068-0.547 0.14-0.802 0.075-0.258 0.151-0.528 0.151-0.876 0-1.217-0.653-2.112-1.23-2.903-0.475-0.651-0.923-1.266-0.927-1.953v-0.009c0-1.142 0.892-1.801 1.777-1.864 1.152-0.080 1.404 0.26 1.783 0.775l0.16 0.213c1.158 1.496 2.328 3.32 2.242 5.519-0.101 2.523-0.815 3.804-2.122 3.804zM17.858 9.134c0 0 0.001 0 0.001 0 0.362 0 0.655-0.293 0.655-0.655s-0.292-0.654-0.653-0.655h-0c-0 0-0.001 0-0.001 0-0.362 0-0.655 0.293-0.655 0.655s0.292 0.654 0.653 0.655h0z">
            </path>
        </symbol>
        <symbol id="icon-creditCard" viewBox="0 0 32 32">
            <path fill="#fff" style="fill: var(--color1, #fff)"
                d="M16 0c8.837 0 16 7.163 16 16s-7.163 16-16 16c-8.837 0-16-7.163-16-16s7.163-16 16-16z"></path>
            <path fill="none" stroke="#00a3a4" style="stroke: var(--color2, #00a3a4)" stroke-linejoin="round"
                stroke-linecap="round" stroke-miterlimit="4" stroke-width="2.2222"
                d="M6 12.667h20M10.444 19.333h2.222M9.556 23.778h12.889c1.245 0 1.867 0 2.342-0.242 0.418-0.213 0.758-0.553 0.971-0.971 0.242-0.475 0.242-1.098 0.242-2.342v-8.444c0-1.245 0-1.867-0.242-2.342-0.213-0.418-0.553-0.758-0.971-0.971-0.475-0.242-1.098-0.242-2.342-0.242h-12.889c-1.245 0-1.867 0-2.342 0.242-0.418 0.213-0.758 0.553-0.971 0.971-0.242 0.475-0.242 1.098-0.242 2.342v8.444c0 1.245 0 1.867 0.242 2.342 0.213 0.418 0.553 0.758 0.971 0.971 0.475 0.242 1.098 0.242 2.342 0.242z">
            </path>
        </symbol>
        <symbol id="icon-parking" viewBox="0 0 32 32">
            <path fill="#fff" style="fill: var(--color1, #fff)"
                d="M16 0c8.837 0 16 7.163 16 16s-7.163 16-16 16c-8.837 0-16-7.163-16-16s7.163-16 16-16z"></path>
            <path fill="#00a3a4" style="fill: var(--color2, #00a3a4)"
                d="M22.535 17.307c-1.432 1.065-3.191 1.596-4.973 1.502h-4.131v6.956h-4.192v-19.531h8.593c1.698-0.091 3.371 0.444 4.702 1.502 1.25 1.224 1.884 2.945 1.728 4.687 0.191 1.805-0.444 3.599-1.728 4.883zM19.38 10.291c-0.638-0.467-1.419-0.696-2.208-0.646h-3.741v5.739h3.741c0.799 0.049 1.586-0.203 2.208-0.706 0.57-0.593 0.855-1.404 0.781-2.223 0.081-0.802-0.206-1.598-0.781-2.163z">
            </path>
        </symbol>
        <symbol id="icon-playground" viewBox="0 0 32 32">
            <path fill="#fff" style="fill: var(--color1, #fff)"
                d="M16 0c8.837 0 16 7.163 16 16s-7.163 16-16 16c-8.837 0-16-7.163-16-16s7.163-16 16-16z"></path>
            <path fill="none" stroke="#00a3a4" style="stroke: var(--color2, #00a3a4)" stroke-linejoin="round"
                stroke-linecap="round" stroke-miterlimit="4" stroke-width="0.8767"
                d="M7.781 9.836h6.849v16.438h-6.849v-16.438z"></path>
            <path fill="none" stroke="#00a3a4" style="stroke: var(--color2, #00a3a4)" stroke-linejoin="round"
                stroke-linecap="round" stroke-miterlimit="4" stroke-width="0.8767"
                d="M9.151 5.726h4.11c1.513 0 2.74 1.227 2.74 2.74v0 1.37h-9.589v-1.37c0-1.513 1.227-2.74 2.74-2.74v0z">
            </path>
            <path fill="none" stroke="#00a3a4" style="stroke: var(--color2, #00a3a4)" stroke-linejoin="round"
                stroke-linecap="round" stroke-miterlimit="4" stroke-width="0.8767" d="M7.781 18.055h6.849"></path>
            <path fill="none" stroke="#00a3a4" style="stroke: var(--color2, #00a3a4)" stroke-linejoin="round"
                stroke-linecap="round" stroke-miterlimit="4" stroke-width="0.8767"
                d="M9.836 11.89h2.74v4.11h-2.74v-4.11z"></path>
            <path fill="none" stroke="#00a3a4" style="stroke: var(--color2, #00a3a4)" stroke-linejoin="round"
                stroke-linecap="round" stroke-miterlimit="4" stroke-width="0.8767" d="M7.781 23.534h6.849"></path>
            <path fill="none" stroke="#00a3a4" style="stroke: var(--color2, #00a3a4)" stroke-linejoin="round"
                stroke-linecap="round" stroke-miterlimit="4" stroke-width="0.8767" d="M7.781 20.795h6.849"></path>
            <path fill="none" stroke="#00a3a4" style="stroke: var(--color2, #00a3a4)" stroke-linejoin="round"
                stroke-linecap="round" stroke-miterlimit="4" stroke-width="0.8767"
                d="M13.26 18.055h4.11l6.849 8.219h2.055"></path>
            <path fill="none" stroke="#00a3a4" style="stroke: var(--color2, #00a3a4)" stroke-linejoin="round"
                stroke-linecap="round" stroke-miterlimit="4" stroke-width="0.8767" d="M17.37 18.74v7.534"></path>
            <path fill="none" stroke="#00a3a4" style="stroke: var(--color2, #00a3a4)" stroke-linejoin="round"
                stroke-linecap="round" stroke-miterlimit="4" stroke-width="0.8767" d="M20.795 22.164v4.11"></path>


        </symbol>
        <symbol id="icon-location" viewBox="0 0 32 32">
            <path
                d="M16 3c-5.5 0-10 4.5-10 10 0 8.4 9 15.5 9.4 15.8 0.2 0.1 0.4 0.2 0.6 0.2s0.4-0.1 0.6-0.2c0.4-0.3 9.4-7.4 9.4-15.8 0-5.5-4.5-10-10-10zM16 17c-2.2 0-4-1.8-4-4s1.8-4 4-4 4 1.8 4 4-1.8 4-4 4z">
            </path>
        </symbol>
        <symbol id="icon-medecine-centre" viewBox="0 0 32 32">
            <path
                d="M16 0l-15.5 8.667v23.333h12.5v-9.098h6v9.098h12.5v-23.333l-15.5-8.667zM8.217 25.887h-2.504v-2.985h2.504v2.985zM8.217 19.262h-2.504v-2.985h2.504v2.985zM17.252 19.262h-2.504v-2.985h2.504v2.985zM19.916 10.426h-2.518v2.518h-2.797v-2.518h-2.518v-2.798h2.518v-2.519h2.797v2.519h2.518v2.798zM23.778 16.276h2.348v2.985h-2.348v-2.985zM26.287 25.887h-2.504v-2.985h2.504v2.985z">
            </path>
        </symbol>


<symbol id="icon-clock" viewBox="0 0 32 32">
<path d="M16 0c-8.836 0-16 7.163-16 16s7.163 16 16 16 16-7.163 16-16-7.163-16-16-16zM16 31c-8.284 0-15-6.716-15-15s6.715-15 15-15 15 6.715 15 15c0 8.284-6.715 15-15 15z"></path>
<path d="M16.5 16c0 0.276-0.224 0.5-0.5 0.5s-0.5-0.224-0.5-0.5c0-0.276 0.224-0.5 0.5-0.5s0.5 0.224 0.5 0.5z"></path>
<path d="M18.465 16.344c0.015-0.113 0.035-0.226 0.035-0.344 0-0.816-0.396-1.532-1-1.989v-7.011c0-0.829-0.672-1.5-1.5-1.5s-1.5 0.671-1.5 1.5v7.011c-0.604 0.457-1 1.174-1 1.989 0 1.381 1.119 2.5 2.5 2.5 0.117 0 0.23-0.019 0.344-0.035l4.253 4.253c0.586 0.586 1.535 0.585 2.121-0s0.586-1.535 0-2.121l-4.252-4.253zM15.5 7c0-0.277 0.223-0.5 0.5-0.5s0.5 0.223 0.5 0.5v6.55c-0.162-0.033-0.328-0.050-0.5-0.050s-0.338 0.018-0.5 0.050v-6.551zM14.5 16c0-0.829 0.671-1.5 1.5-1.5s1.5 0.671 1.5 1.5-0.672 1.5-1.5 1.5-1.5-0.672-1.5-1.5zM22.011 22.011c-0.195 0.196-0.512 0.196-0.707 0l-3.927-3.927c0.281-0.186 0.521-0.427 0.707-0.707l3.926 3.927c0.195 0.195 0.195 0.512 0 0.707z"></path>
<path d="M16 2c-7.732 0-14 6.268-14 14s6.268 14 14 14 14-6.268 14-14-6.268-14-14-14zM25.538 24.83l-1.052-1.052c-0.197-0.195-0.512-0.195-0.707 0-0.195 0.196-0.195 0.512 0 0.707l1.052 1.052c-2.204 2.043-5.117 3.329-8.33 3.45l0-1.487c-0.001-0.276-0.224-0.5-0.5-0.5-0.277 0-0.5 0.224-0.5 0.5l-0.001 1.487c-3.213-0.122-6.126-1.407-8.33-3.449l1.052-1.052c0.195-0.196 0.195-0.512 0-0.707-0.197-0.195-0.511-0.195-0.707 0l-1.052 1.052c-2.042-2.204-3.328-5.117-3.45-8.33h1.487c0.277-0 0.5-0.224 0.5-0.5s-0.223-0.5-0.5-0.5h-1.488c0.122-3.213 1.407-6.126 3.449-8.331l1.052 1.052c0.196 0.195 0.511 0.195 0.707 0s0.196-0.511 0-0.707l-1.052-1.052c2.204-2.043 5.118-3.329 8.331-3.45v1.486c0 0.277 0.223 0.5 0.5 0.5s0.5-0.223 0.5-0.5v-1.487c3.212 0.122 6.126 1.407 8.331 3.449l-1.052 1.052c-0.195 0.196-0.195 0.511 0 0.707s0.512 0.196 0.707 0l1.052-1.052c2.042 2.204 3.328 5.118 3.45 8.331h-1.486c-0.276 0-0.5 0.223-0.5 0.5s0.224 0.5 0.5 0.5h1.488c-0.122 3.213-1.407 6.126-3.45 8.331z"></path>
</symbol>
<symbol id="icon-location2" viewBox="0 0 32 32">
<path d="M16 0c-6.628 0-12 5.372-12 12 0 2.839 1.251 5.335 2.636 7.5l8.549 12.078c0.188 0.265 0.492 0.422 0.816 0.422s0.628-0.157 0.816-0.422l8.549-12.078c1.323-1.781 2.636-4.661 2.636-7.5 0-6.628-5.372-12-12-12zM24.044 19.5h-0.005l-8.039 11-8.043-11c-1.222-1.765-2.957-4.601-2.957-7.5 0-6.075 4.925-11 11-11s11 4.925 11 11c0 2.899-1.86 5.89-2.956 7.5z"></path>
<path d="M16 7c-2.761 0-5 2.239-5 5s2.239 5 5 5 5-2.239 5-5-2.239-5-5-5zM16 16c-2.209 0-4-1.791-4-4s1.791-4 4-4 4 1.791 4 4-1.791 4-4 4z"></path>
<path d="M16 5c-3.866 0-7 3.134-7 7s3.134 7 7 7 7-3.134 7-7-3.134-7-7-7zM16 18c-3.313 0-6-2.687-6-6s2.687-6 6-6 6 2.687 6 6-2.686 6-6 6z"></path>
</symbol>
<symbol id="icon-phone2" viewBox="0 0 32 32">
<path d="M29.5 14.5h-6c-0.828 0-1.5 0.672-1.5 1.5s0.672 1.5 1.5 1.5h6c0.828 0 1.5-0.672 1.5-1.5s-0.672-1.5-1.5-1.5zM29.5 16.5h-6c-0.276 0-0.5-0.224-0.5-0.5s0.224-0.5 0.5-0.5h6c0.276 0 0.5 0.223 0.5 0.5s-0.224 0.5-0.5 0.5z"></path>
<path d="M28.656 22.285l-5.637-2.052c-0.779-0.283-1.64 0.118-1.923 0.896s0.117 1.639 0.896 1.922l5.638 2.053c0.779 0.282 1.639-0.119 1.922-0.896 0.284-0.779-0.117-1.64-0.896-1.923zM28.613 23.866c-0.095 0.261-0.381 0.393-0.64 0.299l-5.639-2.052c-0.26-0.095-0.393-0.381-0.299-0.64s0.381-0.394 0.641-0.299l5.638 2.052c0.259 0.095 0.393 0.381 0.299 0.641z"></path>
<path d="M23.018 11.765l5.638-2.052c0.779-0.283 1.18-1.145 0.896-1.921-0.283-0.779-1.144-1.181-1.923-0.898l-5.637 2.053c-0.779 0.283-1.18 1.145-0.897 1.923s1.145 1.18 1.923 0.896zM22.334 9.886l5.638-2.052c0.259-0.094 0.547 0.040 0.64 0.3s-0.039 0.546-0.299 0.64l-5.639 2.052c-0.26 0.095-0.547-0.039-0.64-0.299s0.039-0.546 0.299-0.641z"></path>
<path d="M10.5 11h4.5c1.105 0 2-0.895 2-2v-7c0-1.105-0.895-2-2-2h-8c-0.26 0-0.519 0.052-0.763 0.154-0.246 0.102-0.469 0.248-0.654 0.435-0.199 0.199-4.582 5.41-4.582 15.41s4.158 14.844 4.336 15.11c0.056 0.086 0.131 0.154 0.197 0.229 0.031 0.033 0.054 0.069 0.088 0.099 0.164 0.158 0.349 0.281 0.551 0.371 0.043 0.021 0.088 0.035 0.133 0.051 0.222 0.082 0.455 0.14 0.691 0.14 0.002 0 0.004 0 0.004 0h8c1.105 0 2-0.895 2-2v-7c0-1.105-0.895-2-2-2h-4.5c-0.277 0-0.5-0.224-0.5-0.5v-9c0-0.277 0.223-0.5 0.5-0.5zM13 1h2c0.552 0 1 0.449 1 1v7c0 0.552-0.448 1-1 1h-2v-9zM11 1h1v9h-1v-9zM13 22h2c0.552 0 1 0.448 1 1v7c0 0.552-0.448 1-1 1h-2v-9zM11 22h1v9h-1v-9zM9 11v10c0 0.552 0.448 1 1 1v9h-3.004c-0.088 0-0.204-0.026-0.363-0.085l-0.045-0.015c-0.003-0.001-0.006-0.003-0.009-0.004-0.090-0.040-0.169-0.091-0.247-0.162-0.020-0.023-0.040-0.047-0.061-0.070-0.022-0.025-0.045-0.050-0.069-0.074-0.015-0.016-0.031-0.032-0.035-0.036-0.016-0.023-0.050-0.070-0.101-0.137-1.221-1.595-4.065-6.193-4.065-14.416 0-9.733 4.262-14.673 4.293-14.707 0.090-0.090 0.199-0.162 0.327-0.216 0.123-0.051 0.252-0.078 0.38-0.078h3v9c-0.552 0-1 0.448-1 1z"></path>
</symbol>


    </defs>
</svg>