<svg aria-hidden="true" style="position: absolute; width: 0; height: 0; overflow: hidden;" version="1.1" xmlns="http://www.w3.org/2000/svg" xmlns:xlink="http://www.w3.org/1999/xlink">
<defs>
<symbol id="coloboration" viewBox="0 0 32 32">
<path stroke-linejoin="miter" stroke-linecap="butt" stroke-miterlimit="4" stroke-width="0.3504" d="M17.433 4.018h1.005v1.005h-1.005v-1.005z"></path>
<path stroke-linejoin="miter" stroke-linecap="butt" stroke-miterlimit="4" stroke-width="0.3504" d="M6.53 26.977l0.71-0.71 1.004 1.004-0.71 0.71-1.004-1.004z"></path>
<path stroke-linejoin="miter" stroke-linecap="butt" stroke-miterlimit="4" stroke-width="0.3504" d="M26.83 20.741l-1.507-1.507c-0.096-0.097-0.235-0.156-0.365-0.147-0.137 0.003-0.266 0.061-0.359 0.162l-0.054 0.138-0.434-0.508v-1.299c0-0.133-0.053-0.261-0.147-0.355l-2.867-2.867v-3.308c0-0.133-0.053-0.261-0.147-0.355l-0.857-0.857v-0.797c0 0 0.502-0.225 0.502-0.502v-8.686h-1.005v6.028h-7.032v-6.028h-1.005v8.686c0 0.277 0 0.502 0.502 0.502v0.797l-1.862 1.862c-0.094 0.094-0.147 0.222-0.147 0.355v1.299l-2.364 2.364c-0.094 0.094-0.147 0.222-0.147 0.355v2.806l-0.576 0.502-0.184-0.147c-0.196-0.196-0.532-0.196-0.729 0l-1.516 1.507-4.525 4.521 0.708 0.71 4.165-4.166 5.316 5.317-4.166 4.166 0.71 0.71 6.028-6.028c0.196-0.196 0.196-0.514 0-0.71l-0.147-0.147 0.529-0.529c0.087 0.016 0.176 0.027 0.267 0.027 0.198 0 0.387-0.041 0.561-0.11 0.174 0.64 0.754 1.115 1.449 1.115 0.535 0 1.003-0.356 1.27-0.778 0.22 0.125 0.469 0.128 0.739 0.128h0.797l0.496 0.57-0.155 0.204c-0.183 0.198-0.177 0.523 0.014 0.714l1.507 1.516 4.018 4.023 0.71-0.708-3.677-3.676 5.345-5.79 4.653 4.654 0.71-0.71-5.023-5.023zM19.59 6.885v1.005h-7.032v-1.005h7.032zM10.903 26.414l-5.317-5.317 0.797-0.797 5.317 5.317-0.797 0.797zM7.595 20.092l0.723-0.649c0.094-0.094 0.221-0.222 0.221-0.355v-2.806l1.507-1.507v0.797c0 0.133 0.053 0.261 0.147 0.355l1.862 1.862v5.317c0 0.363 0.060 0.691 0.274 0.951l-0.385 0.348-4.349-4.313zM17.078 23.608v-7.682h-1.005v8.184c0 0.277-0.226 0.502-0.502 0.502s-0.502-0.226-0.502-0.502v-8.184h-1.005v7.179c0 0.277-0.226 0.502-0.502 0.502s-0.502-0.226-0.502-0.502v-8.184h-1.005v1.446l-1.005-1.005v-3.1l1.862-1.862c0.094-0.094 0.147-0.222 0.147-0.355v-1.152h6.028v1.152c0 0.133 0.053 0.261 0.147 0.355l0.857 0.857v9.838c0 0.277-0.226 0.502-0.502 0.502s-0.502-0.226-0.502-0.502v-5.17h-1.005v7.682c0 0.277-0.226 0.502-0.502 0.502s-0.502-0.226-0.502-0.502zM18.793 24.258c-0.002-0.002 0.070-0.002 0.069-0.003 0.094-0.196 0.225-0.414 0.225-0.646v-1.097c0 0.056 0.326 0.092 0.502 0.092 0.831 0 1.507-0.676 1.507-1.507v-5.317l2.009 2.009v1.299c0 0.133-0.021 0.261 0.073 0.355l0.629 0.666-2.213 2.414-2.179 2.35-0.623-0.615zM19.693 26.045c0.043-0.026 0.087-0.052 0.121-0.089l2.514-2.766 2.654-2.875 0.796 0.796-5.345 5.791-0.796-0.796 0.056-0.061z"></path>
<path stroke-linejoin="miter" stroke-linecap="butt" stroke-miterlimit="4" stroke-width="0.3504" d="M25.617 24.76l1.004-1.004 0.71 0.71-1.004 1.004-0.71-0.71z"></path>
<path stroke-linejoin="miter" stroke-linecap="butt" stroke-miterlimit="4" stroke-width="0.3504" d="M15.926 29.636c-1.678 0-3.306-0.325-4.839-0.966l-0.387 0.927c1.657 0.693 3.415 1.044 5.226 1.044 1.425 0 2.828-0.22 4.173-0.654l-0.308-0.956c-1.244 0.402-2.545 0.606-3.864 0.606z"></path>
<path stroke-linejoin="miter" stroke-linecap="butt" stroke-miterlimit="4" stroke-width="0.3504" d="M28.484 17.078c0 1.177-0.162 2.341-0.483 3.461l0.966 0.277c0.346-1.21 0.522-2.467 0.522-3.737 0-5.245-3.071-10.070-7.824-12.292l-0.425 0.91c4.4 2.057 7.244 6.525 7.244 11.381z"></path>
<path stroke-linejoin="miter" stroke-linecap="butt" stroke-miterlimit="4" stroke-width="0.3504" d="M3.83 20.459c-0.306-1.095-0.461-2.233-0.461-3.381 0-4.856 2.844-9.324 7.245-11.382l-0.425-0.91c-4.753 2.222-7.824 7.047-7.824 12.292 0 1.24 0.167 2.468 0.497 3.651l0.968-0.27z"></path>
</symbol>
<symbol id="money" viewBox="0 0 32 32">
<path d="M15.931 1.667h0.139c1.198-0 2.197-0 2.99 0.107 0.837 0.113 1.593 0.36 2.2 0.967s0.855 1.363 0.967 2.2c0.079 0.586 0.099 1.285 0.105 2.093 0.865 0.028 1.635 0.078 2.321 0.17 1.563 0.21 2.829 0.653 3.826 1.651s1.441 2.263 1.651 3.826c0.204 1.519 0.204 3.46 0.204 5.91v0.15c0 2.45 0 4.391-0.204 5.91-0.21 1.563-0.653 2.829-1.651 3.826s-2.263 1.441-3.826 1.651c-1.519 0.204-3.46 0.204-5.91 0.204h-5.484c-2.45 0-4.391 0-5.91-0.204-1.563-0.21-2.829-0.653-3.826-1.651s-1.441-2.263-1.651-3.826c-0.204-1.519-0.204-3.46-0.204-5.91v-0.15c-0-2.45-0-4.391 0.204-5.91 0.21-1.563 0.653-2.829 1.651-3.826s2.263-1.441 3.826-1.651c0.685-0.092 1.456-0.143 2.321-0.17 0.005-0.808 0.026-1.507 0.105-2.093 0.113-0.837 0.36-1.593 0.967-2.2s1.363-0.855 2.2-0.967c0.793-0.107 1.792-0.107 2.99-0.107zM11.669 7.002c0.504-0.002 1.034-0.002 1.589-0.002h5.484c0.556 0 1.085 0 1.589 0.002-0.006-0.76-0.024-1.334-0.086-1.795-0.083-0.615-0.226-0.879-0.399-1.052s-0.437-0.317-1.052-0.399c-0.644-0.087-1.507-0.089-2.793-0.089s-2.149 0.002-2.793 0.089c-0.615 0.083-0.879 0.226-1.052 0.399s-0.317 0.437-0.399 1.052c-0.062 0.461-0.081 1.035-0.086 1.795zM7.614 9.186c-1.341 0.18-2.114 0.519-2.679 1.083s-0.902 1.337-1.083 2.679c-0.184 1.37-0.186 3.176-0.186 5.719s0.002 4.349 0.186 5.719c0.18 1.341 0.519 2.114 1.083 2.679s1.337 0.903 2.679 1.083c1.37 0.184 3.176 0.186 5.719 0.186h5.333c2.542 0 4.349-0.002 5.719-0.186 1.341-0.18 2.114-0.519 2.679-1.083s0.903-1.337 1.083-2.679c0.184-1.37 0.186-3.177 0.186-5.719s-0.002-4.349-0.186-5.719c-0.18-1.341-0.519-2.114-1.083-2.679s-1.337-0.902-2.679-1.083c-1.37-0.184-3.177-0.186-5.719-0.186h-5.333c-2.542 0-4.349 0.002-5.719 0.186zM16 12.333c0.552 0 1 0.448 1 1v0.014c1.452 0.366 2.667 1.51 2.667 3.097 0 0.552-0.448 1-1 1s-1-0.448-1-1c0-0.512-0.568-1.222-1.667-1.222s-1.667 0.71-1.667 1.222c0 0.512 0.568 1.222 1.667 1.222 1.847 0 3.667 1.28 3.667 3.222 0 1.587-1.215 2.732-2.667 3.097v0.014c0 0.552-0.448 1-1 1s-1-0.448-1-1v-0.014c-1.452-0.366-2.667-1.51-2.667-3.097 0-0.552 0.448-1 1-1s1 0.448 1 1c0 0.512 0.568 1.222 1.667 1.222s1.667-0.71 1.667-1.222c0-0.512-0.568-1.222-1.667-1.222-1.847 0-3.667-1.28-3.667-3.222 0-1.587 1.215-2.732 2.667-3.097v-0.014c0-0.552 0.448-1 1-1z"></path>
</symbol>
<symbol id="pill" viewBox="0 0 32 32">
<path stroke-linejoin="miter" stroke-linecap="butt" stroke-miterlimit="4" stroke-width="0.416" d="M28.671 3.329c-2.909-2.908-7.41-3.123-10.054-0.478l-8.26 8.262c-0.151 0.164-0.243 0.384-0.243 0.626 0 0.215 0.073 0.413 0.196 0.57l-0.002-0.002-7.659 7.658c-2.356 2.357-2.164 6.367 0.426 8.959 1.377 1.376 3.154 2.075 4.87 2.075 1.515 0 2.983-0.545 4.088-1.649l7.659-7.658c0.155 0.121 0.352 0.194 0.567 0.194 0.242 0 0.462-0.093 0.627-0.245l-0.001 0.001 0.003 0.002 8.261-8.261c2.645-2.644 2.43-7.146-0.478-10.055M11.327 28.643c-0.875 0.875-2.075 1.357-3.381 1.357-1.513 0-3.030-0.65-4.163-1.782-2.197-2.198-2.389-5.582-0.427-7.545l7.65-7.65 7.971 7.97-7.651 7.65"></path>
</symbol>
</defs>
</svg>